<?xml version="1.0" encoding="UTF-8"?>
<svg id="Warstwa_2" data-name="Warstwa 2" xmlns="http://www.w3.org/2000/svg" viewBox="0 0 602.49 547.6">
  <path d="M140.1,455.22c-38.99-37.32-73.09-79.54-101.2-125.62-6.94-11.37-13.51-22.96-19.7-34.76-1.62-3.08-3.21-6.17-4.77-9.27-1.16-2.31-3.24-5.18-2.6-7.87,.68-2.88,4.24-5.67,6.14-7.76,2.43-2.68,4.85-5.38,7.25-8.09,18.74-21.16,36.44-43.25,53.08-66.1,18.47-25.37,35.54-51.74,51.21-78.93,3.86-6.7-6.5-12.75-10.36-6.06-29.27,50.82-63.53,98.69-102.41,142.61-8.63,9.75-21.45,19.31-14.96,33.61,5.72,12.59,12.73,24.77,19.66,36.72,13.95,24.05,29.52,47.14,46.5,69.15,19.43,25.18,40.7,48.86,63.68,70.85,5.58,5.34,14.08-3.13,8.49-8.49h0Z"/>
  <path d="M341.53,4.05c-26.23,68.64-51.38,137.69-75.4,207.13-24.02,69.44-46.92,139.27-68.7,209.45-12.33,39.75-24.3,79.61-35.91,119.57-2.16,7.43,9.42,10.6,11.57,3.19,20.5-70.56,42.12-140.8,64.87-210.66s46.62-139.37,71.61-208.47c14.15-39.14,28.67-78.14,43.52-117.01,2.76-7.22-8.84-10.34-11.57-3.19h0Z"/>
  <path d="M437.49,465.4c48.53-28.96,92.55-65.48,129.78-108.02,9.23-10.55,18.04-21.47,26.44-32.7,4.18-5.59,9.39-11.27,8.72-18.73-.64-7.19-5.56-14.47-8.81-20.77-14.26-27.64-31.16-53.83-48.68-79.49-20.94-30.66-42.4-60.96-63.65-91.4-4.39-6.29-14.8-.3-10.36,6.06,18.04,25.85,36.15,51.66,54.11,77.56,17.01,24.53,33.73,49.32,48.45,75.31,3.67,6.49,7.22,13.04,10.62,19.68,1.41,2.77,2.82,5.54,4.16,8.34,2.3,4.78,2.67,6.88-.41,11.26-7.79,11.07-16.41,21.64-25.2,31.92-17.57,20.53-36.7,39.71-57.17,57.35-23.08,19.89-47.89,37.65-74.05,53.26-6.63,3.95-.6,14.33,6.06,10.36h0Z"/>
</svg>